<?xml version="1.0" encoding="UTF-8"?>
<svg width="311px" height="176px" viewBox="0 0 311 176" version="1.1" xmlns="http://www.w3.org/2000/svg" xmlns:xlink="http://www.w3.org/1999/xlink">
    <!-- Generator: Sketch 49.2 (51160) - http://www.bohemiancoding.com/sketch -->
    <title>Group 3</title>
    <desc>Created with Sketch.</desc>
    <defs>
        <rect id="path-1" x="0" y="0" width="308" height="158"></rect>
    </defs>
    <g id="Page-1" stroke="none" stroke-width="1" fill="none" fill-rule="evenodd">
        <g id="HOME" transform="translate(-356.000000, -217.000000)">
            <g id="Group-2" transform="translate(354.000000, 182.000000)">
                <g id="Group-3">
                    <g id="logo-03-white" transform="translate(4.000000, 0.000000)">
                        <mask id="mask-2" fill="white">
                            <use xlink:href="#path-1"></use>
                        </mask>
                        <g id="Mask"></g>
                        <path d="M87.4101257,62.5668104 C90.2769201,65.0901135 91.8602946,66.8084391 93.1510641,69.4123699 C96.3325122,75.5444167 93.2663606,87.3451174 82.8056157,82.2109478 C81.5382731,81.5893335 80.4234341,80.7514114 79.5102491,79.6044161 C78.5961455,78.4587212 77.8556756,77.1526377 77.2902175,75.688333 C76.7229221,74.2248953 76.3118051,72.7514874 76.0522732,71.267676 C75.5345873,68.3026541 75.5805222,65.366242 76.1900777,62.4593067 C76.3214514,61.7952112 76.459256,61.1588585 76.6021134,60.5506822 C76.7431334,59.9438064 77.1400106,58.6737019 77.343502,58.0555556 C81.9806257,58.9970801 84.8818712,60.34131 87.4101257,62.5668104 M63.8162212,76.5579772 C63.7672795,78.1508545 63.5815755,79.5657233 63.2591092,80.7989037 C62.9357281,82.0343841 62.4952529,83.0237803 61.9381409,83.7684722 C61.3791993,84.5136242 60.7091098,84.951056 59.9278723,85.0803076 C58.6640788,85.2900541 57.6468234,85.1180252 56.8761061,84.5610011 C56.4456937,84.1980845 56.125057,83.7532932 55.9160256,83.2280071 C55.7056221,82.7036409 55.5619988,82.1999734 55.4824114,81.7147047 C55.1649764,79.7786895 55.4087701,77.5009164 56.2169942,74.8804654 C56.6089851,73.5102138 57.1436845,72.1482416 57.8183481,70.7922491 C58.491182,69.4380964 59.2820249,68.125801 60.1863027,66.8567428 C60.4374148,66.5048655 60.6903564,66.1677073 60.9478721,65.8452681 C61.2035581,65.5228289 61.4569572,65.1865906 61.7094414,64.8333333 C62.4664368,66.8213251 63.0450465,69.025963 63.4420688,71.4454069 C63.7393782,73.2609099 63.8637907,74.9651 63.8162212,76.5579772 M286.284091,114.662071 C281.736602,118.800093 276.882875,121.202931 271.379443,121.202931 C264.288091,121.202931 254.1995,119.123467 233.141273,103.700293 C226.483352,98.8238946 220.858045,96.8333916 215.944932,97.6166935 C212.228852,98.2091739 209.092898,100.344683 206.358023,104.145098 C201.787045,110.497361 197.555545,122.52934 197.345477,123.127158 L196.612455,125.2213 C196.147557,126.031735 195.688864,126.538813 195.236375,126.730524 C194.536148,127.026319 193.881568,126.323083 193.27308,124.620813 C192.663705,122.918099 192.169557,119.813804 191.78842,115.309263 C191.483955,111.631614 191.329727,107.585666 191.32308,103.169196 C191.315989,98.7527258 191.359864,94.2819894 191.45692,89.7578763 C191.522955,85.7804288 191.55575,81.7936404 191.559295,77.7948422 C191.561068,73.7982681 191.47775,70.0094179 191.309784,66.4309606 C191.103705,62.2586884 190.750489,58.739835 190.25058,55.8770691 C189.750227,53.0151929 189.044682,50.6372646 188.135716,48.7432844 C187.758568,47.9043819 187.255557,46.9364859 186.625352,45.8373724 C185.996034,44.7400381 185.089727,43.688074 183.906432,42.6810352 C180.96592,40.4623471 177.224136,39.7288635 172.675318,40.481029 C171.217693,40.7221133 169.936898,41.3088113 168.832045,42.2411229 C167.727636,43.1729896 166.767705,44.2600934 165.954023,45.5019893 C165.139455,46.7438853 164.442773,48.0582844 163.861318,49.4420732 C163.280307,50.825862 162.7835,52.0913326 162.373114,53.2367058 C161.640091,55.3357413 160.91992,57.7007702 160.214375,60.333127 C159.50883,62.9663734 158.850261,65.8896327 158.241773,69.1051291 C157.768455,56.7413255 156.205795,47.9542 153.553795,42.7419735 C152.35233,40.5375192 150.713886,38.7645259 148.638023,37.4243281 C146.561716,36.0854646 144.369739,35.3212894 142.062977,35.130468 C139.75533,34.9418706 137.523909,35.3857861 135.36517,36.4639938 C133.206432,37.5422014 131.49708,39.3574512 130.240216,41.9097431 C129.060023,44.2098304 128.147068,46.7639015 127.501352,49.5755148 C126.854307,52.3875728 126.282159,55.0061407 125.78225,57.4338871 C125.105068,60.6106854 124.577239,63.9591784 124.197432,67.4780319 C123.817182,70.9982197 123.452443,74.6198231 123.106761,78.3423973 C122.860795,74.6571868 122.461045,71.0418106 121.909727,67.4958241 C121.357523,63.951172 120.601011,60.6209159 119.640193,57.5028319 C118.679375,54.3860823 117.494307,51.5460015 116.085432,48.9843687 C114.677,46.4222912 112.99158,44.2823337 111.033602,42.5618274 C109.083602,40.900925 106.931955,39.7395388 104.57733,39.0763343 C102.222705,38.4153539 99.8454773,38.161815 97.4456477,38.3179416 C95.0462614,38.4749578 92.6889773,38.9847045 90.3760114,39.8476264 C88.0617159,40.7123276 85.9659091,41.8096619 84.0894773,43.1418533 C81.0448182,45.3890088 78.5333068,48.1485799 76.5553864,51.4201217 L76.1312614,52.1215794 L75.5192273,52.2225501 C73.0117045,52.6371085 70.6185227,53.3794883 68.3383523,54.4474654 C66.1574545,55.4691828 64.1055227,56.7622313 62.1776818,58.3181597 C61.2758068,56.7889197 53.1545,44.7075674 31.4346023,44.7075674 L31.3938295,44.7075674 C19.5732841,44.7186875 6.26630682,41.161136 -2.42670455,35.6437731 C-13.0741477,28.8862935 -22.90525,17.2079346 -43,14 L-43,18.2923696 C-21.83275,21.8063301 -13.23325,34.6313966 -2.02252273,40.5837789 C7.03168182,45.3912329 20.4884545,48.7210441 31.3978182,48.7108136 L31.4341591,48.7108136 C51.4806023,48.7108136 57.9049659,58.6984681 58.2639432,59.3727927 L58.8560341,60.2521724 C58.999625,60.5079354 59.1383409,60.7699256 59.2704091,61.0412568 C58.7642955,61.6066041 58.2869886,62.1657241 57.839375,62.7203961 C57.3913182,63.2759578 56.9725114,63.8261817 56.5829545,64.3706232 C54.5372273,67.2338339 53.0747273,70.1802231 52.1954545,73.2111253 C51.2572386,76.2509236 50.9904432,79.0002641 51.3937386,81.4578125 C51.7491705,83.6235687 52.6147045,85.2537795 53.993,86.3471105 C54.5452045,86.7972533 55.2831023,87.1864578 56.2058068,87.5142792 C57.1271818,87.8438798 58.3175682,87.8861363 59.7756364,87.6450519 C62.6904432,87.1628832 64.6821023,85.0674062 65.7492841,81.3546177 C66.1605568,79.8498419 66.3932273,78.162696 66.4468523,76.2971833 C66.4995909,74.4316706 66.3870227,72.4727487 66.1104773,70.4204178 C65.6123409,67.3868468 64.7835909,64.5289738 63.6237841,61.84413 C65.3570682,60.3598153 67.5087159,58.7193739 68.9131591,58.0148026 C70.1155114,57.411202 72.1439545,56.6923969 73.8945227,56.9139099 C73.6981932,57.5464228 73.3658068,58.9915947 73.2244318,59.5836303 C73.0817273,60.1770004 72.9465568,60.8135165 72.8193636,61.4936236 C72.1984659,65.0138114 72.1625682,68.4361421 72.7085682,71.7619501 C73.1114205,74.2146057 73.8249432,76.4648748 74.8500227,78.5123129 C75.8742159,80.5606405 77.1625455,82.2958254 78.7136818,83.716533 C82.3482159,86.8928864 87.1474318,88.2526557 92.0281932,87.4764708 C95.1145114,86.9858507 98.531,84.7827309 100.1495,81.8692572 C100.899364,80.6037866 101.371352,79.1875271 101.564136,77.6227026 C101.756034,76.0587678 101.70817,74.3983102 101.420102,72.6426643 C100.97825,69.952038 100.015216,67.2854313 98.5349886,64.645068 C97.0525455,62.0051495 95.2199886,59.6934972 93.0386477,57.7101111 C89.1195909,54.2713226 84.8885341,52.3862384 80.3428182,52.056193 C81.7357386,49.9633848 83.5093523,48.1823851 85.6641023,46.7127489 C87.8175227,45.2453368 90.0759773,44.3152492 92.4376932,43.9247103 C94.7989659,43.5337266 97.1176932,43.7974961 99.393875,44.7124602 C101.669614,45.6292036 103.631136,47.4533495 105.278443,50.1857874 C107.805909,54.2757706 109.738182,60.0279907 111.075705,67.4393338 C111.786568,71.7708462 112.298,76.0730015 112.611773,80.3489133 C112.923773,84.6248251 113.10592,88.8322368 113.156886,92.9715934 C113.207409,97.1105052 113.172398,101.189368 113.054955,105.205069 C112.935295,109.222994 112.85242,113.098136 112.807216,116.831831 C112.805443,117.914041 113.064261,119.227996 113.782216,120.047327 C116.456375,123.100469 120.432159,121.838557 121.892443,120.169648 C122.742909,119.197304 123.230852,117.685856 123.359818,115.446707 L125.188386,95.3993399 C125.398455,92.2990481 125.642205,89.1338147 125.92008,85.9014158 C126.198398,82.6703513 126.506852,79.4481829 126.848545,76.236245 C127.188023,73.0243071 127.55675,69.8835381 127.951182,66.8121586 C128.34517,63.7421135 128.797216,60.8428737 129.307318,58.1126597 C130.779125,49.9353621 132.49867,44.5425447 134.465955,41.9319833 C136.432352,39.3232012 138.619011,38.9615746 141.025045,40.8471036 C141.916727,41.542334 142.847409,43.0110806 143.814875,45.2546777 C144.781898,47.4996092 145.620398,50.9668652 146.331261,55.6573354 C146.791727,58.8270168 147.147602,62.3605488 147.397557,66.2557074 C147.647955,70.1517555 147.739693,74.4485732 147.672773,79.1479394 C147.619148,87.2122565 147.436557,93.2971908 147.123227,97.4067454 C146.809898,101.51541 146.644148,103.340001 146.593625,103.760342 C146.465545,106.34466 146.803693,107.214699 147.443648,108.158575 C149.267784,110.85187 154.20217,111.130763 156.290886,107.637708 C156.968511,106.5039 157.221125,103.746553 157.319955,102.887634 C157.358955,102.761754 157.548636,100.446989 157.886784,95.9415573 C158.225375,91.4383501 159.071852,85.106549 160.427545,76.948378 C161.587352,69.7843465 162.787045,64.0565908 164.029284,59.7628868 C165.269307,55.470962 166.451716,52.1802936 167.572966,49.8904368 C168.693773,47.6019144 169.71708,46.080236 170.641114,45.3258465 C171.564705,44.5723466 172.290193,44.1511161 172.81492,44.0643791 C173.689761,43.9198175 174.442284,44.1266519 175.072932,44.6826583 C177.303909,46.5988788 178.798761,51.8809398 179.561034,60.5301757 C179.931534,64.6161556 180.164648,69.1309278 180.258159,74.074492 C180.350784,79.0176115 180.416375,83.981192 180.456261,88.9630095 C180.427011,93.8972329 180.466455,98.788755 180.57592,103.639355 C180.68317,108.490845 180.922932,112.958912 181.294318,117.044892 C181.732182,121.89994 182.389864,125.728823 183.26958,128.528871 C184.147966,131.32803 185.28517,133.335435 186.683409,134.546195 C188.020489,135.767185 189.65317,136.219552 191.57658,135.901516 C193.675489,135.553679 195.590034,134.274864 197.325534,132.065072 C198.795568,130.077683 199.643375,128.709907 200.708784,125.708807 L201.07042,124.568326 C202.604716,120.470781 206.314591,111.043581 209.59192,106.489222 C211.673102,103.596209 213.956375,101.987349 216.570705,101.570566 C220.331545,100.972303 225.113477,102.775988 230.790193,106.934027 C243.126602,115.969353 257.596932,125.206177 271.379443,125.206177 C278.130432,125.206177 283.430886,121.518297 288.556284,117.95185 C294.12575,114.077152 299.884455,104.773163 308,104.773163 L308,100.127618 C298.637341,100.127618 292.580818,108.931647 286.284091,114.662071" fill="#FFFFFE" mask="url(#mask-2)"></path>
                    </g>
                    <text id="MALVINA-CAMPION-GRAP" font-family="FilsonSoft-Light, Filson Soft" font-size="32" font-weight="300" letter-spacing="1" fill="#FFFFFF">
                        <tspan x="0.296" y="189">MALVINA CAMPION</tspan>
                        <tspan x="316.704" y="189" font-family="Helvetica" font-size="14" font-weight="normal"></tspan>
                        <tspan x="2.1025" y="219" font-family="Serenity-Light, Serenity" font-size="17.5">GRAPHIC DESIGN · WEB · ILLUSTRATION</tspan>
                    </text>
                </g>
            </g>
        </g>
    </g>
</svg>